<?xml version="1.0" encoding="UTF-8"?> <svg xmlns="http://www.w3.org/2000/svg" xmlns:v="https://vecta.io/nano" viewBox="0 0 2258 928" fill="#1b53e0"><path d="M414.66 0H416q0 .02.01.05 0 .05.06.06 232.29 34.37 464.54 69.03c12.88 1.93 26.81 4.42 39.96 6.6a.24.24 0 0 1 .11.43l-34.02 27.02q-179.94 147.7-359.12 294.73-1.23 1.01-2.04 2.38-.26.45-.78.38-222.16-32.6-444.87-65.26-14.76-2.16-25.13 4.67c-11.81 7.78-18.05 20.39-16.31 34.38 1.53 12.3 9.57 22.9 20.92 27.91q4.59 2.02 14.76 3.47 23.61 3.37 48.37 7.21.42.07.42-.36l-.02-27.74q0-.45.45-.38l19.46 2.86a.73.72 3.8 0 1 .62.7l.09 27.55a.56.55-86.3 0 0 .47.54l409.61 61.27a1.37 1.35-60.4 0 0 1.07-.3q185.69-152.42 371.25-304.7c9.82-8.06 25.38-3.37 27.78 9.73q1.85 10.13-6.58 17.05-51.51 42.3-101.24 83.08a.87.87 0 0 0-.27.92l58.18 189.17q.17.55-.24.96-10.03 10.07-21.18 19.85-71.94 63.1-157.87 107.63c-89.58 46.42-187.36 74.03-287.29 74.82q-69.86.55-138.31-16.31a1 1 0 0 1-.73-.68l-59.48-193.38a.77.77 0 0 0-.63-.54l-94-14.07q-.58-.08-.58.5l.06 116.06q0 .97-.91.64-9.27-3.3-19.41.2a.16.16 0 0 1-.21-.15l.01-119.96q0-.46-.45-.52-29.29-4.3-59.64-8.94C21.7 432.27-4.69 391.47 6.6 351.07q5.65-20.25 22.35-34.08 4.9-4.06 9.89-8.16Q226.8 154.26 414.66 0zm771.24 266.99c-5.01 11.29-6.38 26.08-1.01 37.33 7 14.68 23.75 23.23 39.38 28.52q14.23 4.82 26.74 7.64 54.85 12.36 108.97 24.81 10.75 2.47 26.14 8.1 20.62 7.54 37.75 18.99 46.99 31.4 55.5 87.45 3.62 23.76.56 46.94-7.25 55.06-48.85 89.71c-23.78 19.8-53.76 31.83-84.78 38.25q-39.45 8.16-86.61 6.1c-34.93-1.52-69.64-7.81-101.25-21.23-25.39-10.78-48.75-26.52-65.6-47.9-11.48-14.56-19.51-31.76-20.98-50.19-2.05-25.77 12.83-47.53 39.1-51.23q25.76-3.63 43.81 14.4 5.67 5.66 10.63 12.22 8.47 11.22 16.65 21.27 26.07 32.02 67.62 38.55c25.42 3.99 53.24 3.12 77-7.05 23.43-10.03 43.14-31.19 42.02-58.23-1.13-27.27-21.16-42.32-45.79-48.59q-65.27-16.61-131.62-33.52c-30.88-7.88-63.26-21.5-85.79-44.59q-23.58-24.17-29.69-58.24-6.41-35.73 1.61-68.86c20.75-85.62 116.21-114.19 193.14-113.73q50.15.3 99.25 19.34c34.08 13.21 73.61 37.32 87.33 72.93 4.26 11.07 5.83 25.02 2.32 36.12-7.16 22.67-30.84 32.63-53.53 31.27-15.13-.9-26.38-9.99-35.99-20.91-8.4-9.53-16.62-19.11-26.27-27.24-14.59-12.28-32.37-19.61-51.04-22.69-18.47-3.04-38.64-3.35-56.38-.06-20.7 3.84-41.45 14.29-50.34 34.32zM2258 386.63v19.87q-.43 7.45-.93 14.87c-4.21 63.15-26.94 126.22-71.71 171.8q-30.82 31.37-72.49 48.67c-35.36 14.68-73.81 20.17-113.12 19.33-34.7-.74-69.43-6.16-101.33-18.73q-60.28-23.75-95.4-76.05c-33-49.13-44.23-109.85-44.54-168.24-.21-38.69 6-78.37 20.64-113.75q34.57-83.54 116.11-119.12c17.43-7.6 38.24-13.6 58-16.88q48.91-8.11 98.08-1.77 30.09 3.88 55.72 13.12 86.46 31.17 125.59 113.72 9.66 20.4 16.04 44.9 8.18 31.48 9.34 68.26zm-116.71 62.32q6.31-38.48 3.06-76.98c-2.45-28.93-10.34-58.42-26.05-82.32-27.7-42.14-72.33-57.86-121.72-54.79-36.25 2.24-68.87 16.69-91.59 45.34q-13.03 16.44-20.85 37.38-7.43 19.92-10.09 38.66-7.69 54.13 3.88 108.45 4.75 22.28 14.98 42.12 21.95 42.57 66.66 56.92c22.43 7.21 47.92 8.4 71.15 5.51 32.47-4.04 61.05-18.84 80.86-45.27 16.16-21.54 25.31-48.18 29.71-75.02z"></path><rect x="1563.62" y="146.69" width="112.6" height="511.74" rx="52.9"></rect><circle cx="133.24" cy="594.86" r="19.09"></circle><path d="M167.26 766c-9.64-7.16-23.91-15.68-35.61-16.07q-5.88-.2-13.23 2.75-12.79 5.15-23.77 13.48-.59.44-.46-.29l25.09-145.11a.66.66 0 0 1 .94-.48c7.91 3.88 16.94 4.17 24.95.53q.74-.34.87.47l21.98 144.26q.17 1.15-.76.46zm472.12 162h-7.64q-23.21-2.26-37.1-20.88c-10.27-13.79-13.51-30.54-11.76-47.76 2.77-27.28 22.62-51.54 51.65-51.57q23.9-.01 39.08 18.4.77.93.77-.28-.04-24.33.01-50.11.01-6.94.03-7.07c1.6-10.91 17.76-10.24 17.77 1.85q.04 72.04 0 145.72c0 12.32-17.35 12.62-17.8.64q-.16-4.2.08-8.18.12-1.89-1.01-.36-12.39 16.81-34.08 19.6zm-1.533-16.201a43.92 38.22 89.6 0 0 37.913-44.186 43.92 38.22 89.6 0 0-38.526-43.652 43.92 38.22 89.6 0 0-37.912 44.186 43.92 38.22 89.6 0 0 38.526 43.652zM305.35 928h-9.1q-26.3-1.38-45.42-18.43-4.67-4.17-5.46-7.01c-1.71-6.14 3.32-12.98 10.07-11.53q2.51.54 5.4 3.42c11.83 11.79 28.29 17.3 44.84 16 11.84-.93 28.2-7.51 30.02-21.08 2.68-19.99-16.97-28.72-32.64-32.67-20.31-5.12-45.39-11.39-51.68-34.64q-1.85-6.81-1.37-14.75c1.08-18.16 13.8-31.48 30.65-36.45q25.45-7.49 50.25 2.51c7.11 2.87 27.71 14.85 18.57 25.01-2.78 3.09-7.66 4.57-11.1 1.44-2.02-1.83-3.96-3.82-6.22-5.34q-15.57-10.49-33.9-9.48c-15.38.85-32.23 8.77-30.37 27.18 1.14 11.16 10.44 17.08 19.97 20.83q7.63 3.01 14.1 4.66c21.29 5.45 47.18 12.26 51.28 37.7q4.6 28.62-17.95 43.24-12.65 8.2-29.94 9.39zm1074.75 0h-9.6q-37.64-2.98-57.17-33.6c-10.97-17.2-14.72-38.75-12.05-59.39 4.52-34.9 29.46-62.95 65.22-66.8 29.9-3.23 57.71 9.66 72.87 35.98 18.4 31.96 14.23 77.9-13.06 103.95q-18.78 17.93-46.21 19.86zm-10.4-18.13q20.96 1.76 36.15-8.71c15.89-10.97 24.34-29.39 25.34-48.71.88-17.08-3.07-33.93-13.69-46.99q-15.67-19.29-40.55-19.85-25.2-.57-41.51 17.3c-12.3 13.48-16.77 32-15.64 50.49 1.73 28.38 20.04 53.95 49.9 56.47z"></path><rect x="-10.85" y="-10.6" transform="matrix(.999986 -.005236 .005236 .999986 733.35 783.31)" width="21.7" height="21.2" rx="8.27"></rect><rect x="-10.91" y="-10.6" transform="matrix(.999994 -.003491 .003491 .999994 1074.78 783.31)" width="21.82" height="21.2" rx="8.39"></rect><path d="M408.9 827.78a.57.56-89.5 0 0-.56.56q-.1 33.59-.01 68.47c.01 5.79.87 11.13 7.46 12.9q4 1.08 7.55-.45c5.67-2.44 10.01 2.18 9.43 7.75-.61 5.82-9.09 8.53-14.09 8.69q-4.11.13-8.43-.36c-13.51-1.51-19.64-11.82-19.67-24.93q-.09-32.96 0-71.82a.76.76 0 0 0-.74-.76q-5.72-.14-12.19 0-3.71.08-5.83-1.34c-6.73-4.53-3.92-14.87 4.29-15.12q6.49-.2 13.75 0a.76.75-89.6 0 0 .77-.77q-.16-10.26-.05-20.76c.08-7.02 7.36-10.64 13.4-7.65 3.53 1.75 4.28 4.86 4.29 8.85q.01 10.06.06 19.64a.65.64 0 0 0 .65.64q10.03-.05 18.98-.03c11.75.03 11.86 16.61.31 16.53q-10.3-.08-19.37-.04zM830.4 928h-8.65q-2.16-.32-4.33-.55c-20.55-2.14-36.82-14.17-45.16-32.37-4.42-9.63-5.53-20.94-4.91-31.83q1.14-20.28 12.52-34.97c10.64-13.73 26.72-21.34 43.97-20.4 29.12 1.58 49.66 25.33 50.38 53.84.14 5.42-4.14 9.3-9.52 9.3q-42.85-.03-79.68-.01-.64 0-.58.63c2.1 25.02 19.73 41.47 45.43 39.72 9.52-.65 18.16-4.65 24.87-11.43q2.48-2.51 5.44-3.29c5.87-1.56 11.27 4.02 9.15 9.89q-.55 1.52-2.34 3.39Q852.03 925.5 830.4 928zm-44.62-72.38h69.02a.59.59 0 0 0 .59-.62c-.67-12.53-8.16-22.02-19.11-27.06-12.86-5.93-29.65-4.1-39.95 5.96q-8.4 8.21-10.87 21.33a.33.32 5.8 0 0 .32.39zM942.12 928h-8.1q-13.64-1.16-24.4-6.61c-5.47-2.76-15.83-10.46-17.82-17.41-2.23-7.78 8.75-12.93 14.17-6.78 11.38 12.91 25.21 18.71 42.58 14.87 7.24-1.61 13.58-6.19 14.55-13.97 1.23-9.84-5.29-15.34-13.72-18.36q-7.76-2.77-17.4-5.39c-16.4-4.46-34.6-12.26-35.26-32.34q-.34-10.05 4.27-17.17c15.08-23.28 57.68-22.05 73.93-.83 6.61 8.62-4.92 17.54-12.03 9.87q-9.01-9.73-23.28-10.8c-9.99-.74-24.62 2.23-25.64 14.65-.84 10.34 6.37 15.26 14.93 18.31 9.95 3.54 20.56 5.85 29.84 9.49 9.47 3.7 17.6 10.57 19.83 20.77 4.56 20.94-7.97 35.64-27.33 40.12q-4.5 1.04-9.12 1.58zm192.38-99.85q9.3-13.28 26.14-18.56 10.34-3.25 23.32-.77c24.09 4.61 28.94 27.54 28.85 48.59q-.12 27.49.02 57.41c.03 4.7-1.15 8.63-5.82 10.37-5.96 2.23-12.07-2.1-12.07-8.52q.04-30.39-.01-62.2c-.02-15.49-6.36-28.81-23.58-30.03q-17.14-1.22-28.84 9.86c-7.67 7.27-9.16 14.61-9.07 25.51q.22 27.84.04 57.21c-.06 9.97-14.51 12.09-17.21 2.75q-.57-1.95-.56-4.4.04-45.93.05-95.7c0-9.39 12.51-12.54 16.81-4.4 1.57 2.95 1.05 8.99.96 12.56q-.04 1.78.97.32zM1651.9 928h-8.65q-8.18-1-10.26-1.49c-34.83-8.05-49-39.84-42.6-73.23 7.3-38.11 48.01-58.18 81.36-36.86 15.01 9.59 23.61 26.94 24.24 44.77.21 6.03-3.93 9.81-9.77 9.82q-39.88 0-79.44-.01-.59 0-.56.59c.73 13.25 6.97 25.61 17.8 33 8.24 5.63 17.53 7.45 27.44 6.78 9.69-.65 18.29-4.64 25.06-11.46 4.15-4.17 10.57-5.34 14 .34 2.29 3.79.73 7.07-2.21 10.1q-14.91 15.31-36.41 17.65zm-44.16-72.37l68.83-.01a.56.56 0 0 0 .56-.58c-.36-8.86-4.19-16.37-10.9-21.87q-14.71-12.05-33.9-7.22c-13.84 3.48-22.18 15.07-25.12 29.02a.55.54-84 0 0 .53.66zm132.34-21.89c6.71-15.7 22.66-27.4 39.71-25.78 6 .57 11.92 3.62 10.94 10.73-.92 6.76-7.35 8.44-12.92 6.16-17.63-7.19-33.28 12.63-37.12 27.36q-1.41 5.42-1.34 13.89.24 27.52 0 50.69c-.13 11.97-17.75 11.96-17.76-.29q-.04-48.25-.09-96.5c-.01-12.13 17.75-12.6 17.88-.39q.07 6.44.03 13.99-.01 1.72.67.14zM1853.12 928h-8.11q-9.85-.92-18.48-4.06-11.65-4.24-20.36-14.13c-4.1-4.65-5.69-10.62.63-14.3 4.4-2.56 8.09-.74 11.23 2.73 10.46 11.56 23.03 16.88 38.79 14.4 9.25-1.46 17.28-6.41 17.45-16.76.19-11.19-11.21-15.9-20.47-18.4q-10.76-2.92-20.26-6.19c-13.98-4.82-25.54-13.83-25.83-29.81q-.24-13.4 8.88-22.27c17.61-17.1 52.63-14.48 68.49 3.62 3.59 4.09 4.18 9.83-1.08 12.91-3.08 1.81-7.23 1.24-9.71-1.52-9.46-10.53-25.46-13.9-38.56-9.27-5.8 2.05-10.25 6.43-10.76 12.88-.9 11.62 8.74 16.48 18.23 19.36q10.84 3.29 20.29 6.03c10.45 3.04 21.26 9.16 25.05 19.72q3.15 8.77 1.4 18.2c-2.57 13.87-15.36 22.77-28.71 25.54q-3.99.83-8.11 1.32zm119.04 0h-8.39q-12.28-.92-21.54-5.03-18.31-8.12-27.14-26.27c-5.98-12.3-6.9-26.56-4.95-40.22 3.37-23.74 19.97-43.31 43.6-47.8 17.49-3.32 35.96 2.76 48.09 16.14 9.18 10.12 14.25 23.21 14.42 37.17.07 5.76-4.66 9.04-9.95 9.03q-40.45-.05-79.39-.01a.36.36 0 0 0-.36.37c.93 23.66 18.93 40.69 42.56 40.14q16.44-.39 27.46-11.38c3.19-3.18 7.53-5.19 11.62-2.65 4.12 2.56 4.91 8.02 1.67 11.58q-14.98 16.48-37.7 18.93zm-4.56-103.07c-21.17-2.47-35.55 9.87-40.11 29.8a.74.73 6.5 0 0 .72.9h68.55a.52.51 0 0 0 .52-.51c-.06-16.42-14.48-28.42-29.68-30.19zM2092.62 928h-7.63q-22.12-2.13-35.87-19.13c-11.45-14.16-15.01-32.6-12.89-50.91 3.19-27.49 24.1-50.93 53.12-50.15q23.38.63 37.47 18.11.7.87.73-.25c.15-5.92-1.33-12.38 5.12-15.27 6.01-2.7 12.71 1.18 12.71 7.93q-.01 48.64.06 96.89 0 3.17-.88 5.27c-2.23 5.3-9.04 6.98-13.55 3.42-4.26-3.37-3.81-9.56-3.35-14.39q.23-2.46-1.25-.48-12.16 16.39-33.79 18.96zm-1.69-16.251a43.92 38.21 89.7 0 0 37.98-44.12 43.92 38.21 89.7 0 0-38.44-43.719 43.92 38.21 89.7 0 0-37.979 44.119 43.92 38.21 89.7 0 0 38.439 43.719zM2258 891.62v6.59q-1.64 12.5-10.61 19.68-8.27 6.61-18.66 8.78-3.99.83-8.12 1.33h-8.35q-1.89-.22-7.99-1.28-18.1-3.17-29.93-16.11c-4.3-4.69-6.89-10.81-.36-14.91 7.36-4.62 11.57 3.23 16.11 7.18q16.74 14.55 38.66 8.69c6.22-1.66 11.76-6.19 12.79-12.9 1.95-12.73-9-17.96-19.1-20.84-18.61-5.31-46.13-10.66-47.2-35.43q-.71-16.48 12.36-26.17c18.25-13.53 50.53-10.64 65.26 6.98 3.06 3.66 3.66 8.83-.5 11.97-3.09 2.33-7.65 2.11-10.38-.76q-14.56-15.32-36.94-10.1-3.68.85-7.25 3.62c-7.21 5.58-7.22 16.9-.32 22.68q3.77 3.16 8.31 4.8 9.89 3.56 21.34 6.63c15.66 4.21 29.16 11.55 30.88 29.57zM1521.5 897q17.96-42.24 35.1-82.46c1.25-2.93 3.26-5.35 6.62-5.77q4.43-.55 7.29 2.02c3.99 3.57 2.79 7.45.75 12.14q-21.86 50.33-42.35 97.31c-1.3 3-3.67 5.14-7.03 5.46-7.87.76-9.17-4.34-12.18-11.25q-20.3-46.56-39.93-91.65c-2.03-4.67-2.88-8.4 1.12-11.98q3.49-3.1 8.79-1.72c4.53 1.17 5.66 4.37 7.65 9.05q16.91 39.68 33.56 78.85a.33.33 0 0 0 .61 0z"></path><rect x="724.44" y="808.95" width="17.82" height="116.78" rx="8.68"></rect><rect x="1065.85" y="808.93" width="17.88" height="116.82" rx="8.75"></rect><path d="M505.06 910.86c20.54 1.83 33.69-8.81 33.69-29.63q0-30.76 0-61.47c0-11.9 17.83-12.35 17.86-.09q.06 30.94 0 62.45c-.05 23.77-13.67 41.47-37.86 44.78-31.05 4.24-56.95-10.83-57.17-44.58q-.15-24.14-.04-62.44c.03-12.18 17.89-12.32 17.85-.13q-.08 30.39.02 61.04c.06 16.41 7.85 28.49 25.65 30.07z"></path></svg> 